PathFileType  4	(X/Y/Z) C:\Users\antoi\Documents\MyRepositories\mobilecap\ResultsAnalysis
DataRate	CameraRate	NumFrames	NumMarkers	Units	OrigDataRate	OrigDataStartFrame	OrigNumFrames
100.0	100.0	7	51	mm	100.0	115	153
Frame#	Time	r_knee			r_shank_antsup			r_ankle			r_calc			r_5meta			r_toe			L_knee			L_shank_antsup			L_ankle			L_calc			L_5meta			L_toe			r_sh2			r_sh3			r_sh4			L_sh2			L_sh3			r_thigh1			r_thigh2			r_thigh3			r_thigh4			r_thigh5			L_thigh1			L_thigh2			L_thigh3			L_thigh4			r.ASIS			r.PSIS			L.ASIS			L.PSIS			C7			R_Shoulder			L_Shoulder			R_Sternum			L_Sternum			R_humerus			R_elbow_med			R_elbow_lat			R_forearm			R_wrist_radius			R_wrist_ulna			L_humerus			L_elbow_med			L_elbow_lat			L_forearm			L_wrist_radius			L_wrist_ulna			R_HJC			L_HJC			R_HJC_reg			L_HJC_reg			
		X1	Y1	Z1	X2	Y2	Z2	X3	Y3	Z3	X4	Y4	Z4	X5	Y5	Z5	X6	Y6	Z6	X7	Y7	Z7	X8	Y8	Z8	X9	Y9	Z9	X10	Y10	Z10	X11	Y11	Z11	X12	Y12	Z12	X13	Y13	Z13	X14	Y14	Z14	X15	Y15	Z15	X16	Y16	Z16	X17	Y17	Z17	X18	Y18	Z18	X19	Y19	Z19	X20	Y20	Z20	X21	Y21	Z21	X22	Y22	Z22	X23	Y23	Z23	X24	Y24	Z24	X25	Y25	Z25	X26	Y26	Z26	X27	Y27	Z27	X28	Y28	Z28	X29	Y29	Z29	X30	Y30	Z30	X31	Y31	Z31	X32	Y32	Z32	X33	Y33	Z33	X34	Y34	Z34	X35	Y35	Z35	X36	Y36	Z36	X37	Y37	Z37	X38	Y38	Z38	X39	Y39	Z39	X40	Y40	Z40	X41	Y41	Z41	X42	Y42	Z42	X43	Y43	Z43	X44	Y44	Z44	X45	Y45	Z45	X46	Y46	Z46	X47	Y47	Z47	X48	Y48	Z48	X49	Y49	Z49	X50	Y50	Z50	X51	Y51	Z51	

115	1.14000000	1315.81273	616.04028	-71.15502	1374.77596	481.01326	-77.72226	1408.79238	111.35926	-88.08348	1360.16582	71.18252	-149.32887	1556.31843	94.57606	-62.16362	1584.01049	137.10591	-111.50834	1058.15666	592.71972	-354.91002	1060.91058	389.77244	-314.73158	917.50336	112.02505	-304.20490	856.20786	79.53344	-240.28845	1051.52831	36.02470	-346.33548	1095.21318	61.47914	-287.10612	1399.34440	370.84596	-85.31975	1313.84561	461.62339	-35.39951	1335.04302	350.54350	-35.04528	1003.26712	404.13257	-378.09006	969.75416	294.79416	-354.73570	1257.39073	896.56804	-35.38567	1306.78245	797.16893	-45.91717	1260.00934	749.03390	-32.33752	1155.79497	852.35069	-50.26108	1205.25821	744.71635	-50.40443	1187.11283	871.76521	-374.01802	1156.67031	741.42281	-362.07271	1081.97465	895.33581	-401.94977	1055.88296	760.73420	-396.77338	1224.82271	1164.83596	-79.74160	1040.13945	1193.72409	-170.44542	1226.36520	1151.46793	-359.47969	1042.73858	1196.11640	-264.01938	1132.81091	1689.47814	-226.56936	1183.30912	1630.51322	-52.68189	1192.83551	1648.17430	-399.36880	1256.13797	1583.31605	-193.77630	1261.30032	1584.84988	-251.60915	1113.39374	1370.33074	21.17105	1006.55417	1272.58800	-21.04152	1014.95330	1295.82866	49.35597	1109.20959	1101.28477	78.54484	1145.39390	1012.20716	77.93665	1115.61241	1009.38547	102.58398	1179.60392	1356.21042	-469.96656	1082.28541	1283.09456	-432.74621	1109.44022	1281.97699	-505.36077	1211.94527	1100.78385	-521.63592	1249.29603	1029.60471	-511.24841	1226.72089	1027.32840	-536.94245	1146.77807	1068.83431	-116.42804	1140.92714	1065.09532	-313.78248	1155.08789	1069.42876	-124.04675	1160.21813	1074.15099	-308.75516	
116	1.15000000	1323.24892	613.71274	-70.86676	1384.45739	479.90372	-77.77947	1427.08214	111.05515	-90.70730	1379.68181	70.35500	-152.41658	1574.96003	97.30545	-64.35411	1601.81159	140.88122	-113.27504	1064.32636	592.01570	-354.42502	1064.77502	389.01225	-314.27348	918.06321	112.80885	-303.97537	856.54402	80.50239	-240.09662	1051.57782	36.04501	-346.29092	1095.45504	61.34886	-287.04743	1411.49411	370.35660	-86.02307	1323.67152	458.93934	-35.98583	1347.30588	348.31764	-36.43016	1007.37097	404.05616	-377.71948	972.55889	295.10123	-354.43969	1266.69439	894.74397	-35.41180	1315.52846	795.16589	-46.41255	1268.47983	747.01069	-31.96107	1164.71448	851.05961	-49.57396	1213.70683	743.15916	-49.89713	1195.52606	870.10137	-373.77073	1164.34561	740.02262	-361.85528	1090.47164	894.44431	-401.80629	1063.51014	760.08748	-396.44024	1235.21302	1163.14036	-79.31099	1050.45577	1192.33824	-169.98957	1236.76512	1149.89957	-359.04781	1053.07675	1194.68802	-263.56631	1143.71181	1688.05111	-225.06385	1194.25919	1628.57048	-51.38151	1203.56665	1647.00618	-398.01306	1266.96465	1581.57312	-192.57530	1272.10960	1583.23716	-250.43211	1124.22241	1368.34112	22.06952	1017.26379	1270.77757	-20.18223	1025.71026	1293.89191	50.20881	1119.35600	1098.94674	79.02716	1155.27896	1009.73259	78.27929	1125.39868	1007.05948	102.93004	1190.29853	1355.14581	-468.96835	1093.04867	1281.92700	-431.82807	1120.17625	1280.95878	-504.47409	1222.86032	1099.86218	-520.99473	1260.27785	1028.78340	-510.70579	1237.63596	1026.47187	-536.39789	1157.01678	1067.26109	-116.02609	1151.16834	1063.60430	-313.38220	1165.28163	1067.96694	-123.59580	1170.45458	1072.60516	-308.30029	
117	1.16000000	1331.14698	611.59656	-70.70849	1394.09767	478.65638	-78.02181	1442.98430	110.57463	-93.35065	1396.70308	69.57939	-155.61259	1591.02665	99.01236	-66.30435	1617.33344	143.36017	-114.75808	1070.85800	591.30748	-353.89553	1068.88535	388.21429	-313.77503	918.70197	113.73878	-303.73836	856.91282	81.69764	-239.93969	1051.64669	36.08894	-346.23150	1095.71546	61.21890	-286.97187	1422.96845	369.62529	-86.86536	1333.39558	456.49812	-36.77737	1358.79570	346.24514	-37.94049	1011.80086	404.00706	-377.30353	975.53971	295.43564	-354.11969	1276.16784	893.00627	-35.37991	1324.55729	793.32023	-46.79562	1277.22137	745.18576	-31.79957	1173.87987	849.80476	-49.24577	1222.51151	741.75449	-49.68641	1204.11581	868.49644	-373.42674	1172.35258	738.65195	-361.57155	1099.24237	893.54522	-401.53985	1071.38615	759.43027	-395.98805	1245.64723	1161.48311	-78.79250	1060.84110	1190.97176	-169.47270	1247.27600	1148.33906	-358.53752	1063.50132	1193.29088	-263.06850	1154.65517	1686.65836	-223.47657	1205.18219	1626.63877	-50.00976	1214.31136	1645.88788	-396.57793	1277.80630	1579.86589	-191.28455	1282.95333	1581.67117	-249.16106	1135.08700	1366.33240	23.02621	1028.04278	1268.91139	-19.25810	1036.52921	1291.89770	51.11506	1129.58823	1096.57443	79.57318	1165.26260	1007.19228	78.66795	1135.31530	1004.70421	103.34487	1201.02127	1354.12832	-467.87251	1103.83324	1280.79847	-430.77756	1130.91075	1279.97079	-503.46800	1233.68526	1098.93431	-520.25963	1271.10817	1027.92873	-510.09288	1248.40565	1025.61885	-535.77683	1167.31201	1065.71978	-115.54540	1161.50496	1062.13021	-312.90396	1175.54811	1066.50296	-123.08161	1180.79740	1071.07990	-307.78823	
118	1.17000000	1339.59149	609.69969	-70.73798	1403.76760	477.24994	-78.49831	1456.49374	109.78973	-95.90877	1411.12157	68.71005	-158.74124	1604.54534	99.54334	-68.03151	1630.61597	144.37651	-116.05366	1077.77096	590.59513	-353.32863	1073.26907	387.38239	-313.23830	919.43275	114.82773	-303.51652	857.33009	83.13550	-239.82768	1051.73947	36.16353	-346.15540	1095.98023	61.09711	-286.86794	1433.80047	368.58014	-87.86567	1343.08237	454.29519	-37.76672	1369.56873	344.29200	-39.52786	1016.57221	403.98674	-376.84861	978.72547	295.80453	-353.78302	1285.79577	891.34134	-35.22886	1333.87885	791.61036	-46.99120	1286.24801	743.48997	-31.84108	1183.31054	848.55504	-49.28605	1231.70946	740.49269	-49.82075	1212.91918	866.96455	-372.96510	1180.70079	737.32847	-361.19803	1108.30400	892.68569	-401.19570	1079.55227	758.76422	-395.41562	1256.12970	1159.87659	-78.17768	1071.30566	1189.62530	-168.88939	1257.88595	1146.81331	-357.95053	1074.01663	1191.92751	-262.50903	1165.64400	1685.30556	-221.81620	1216.07626	1624.73608	-48.57302	1225.09741	1644.82914	-395.06393	1288.67395	1578.20939	-189.90254	1293.83972	1580.16333	-247.79314	1145.97226	1364.32883	24.03636	1038.88282	1267.01057	-18.30497	1047.39129	1289.87135	52.05767	1139.90488	1094.20810	80.18542	1175.33597	1004.65243	79.11564	1145.35161	1002.35258	103.82845	1211.77025	1353.17530	-466.68356	1114.62559	1279.73747	-429.60459	1141.63578	1279.03385	-502.35098	1244.41278	1098.01984	-519.43063	1281.79077	1027.05842	-509.40477	1259.02892	1024.78780	-535.07968	1177.67931	1064.21732	-114.98443	1171.94316	1060.68876	-312.34614	1185.89766	1065.04644	-122.49553	1191.24620	1069.58924	-307.21671	
119	1.18000000	1348.64880	608.02223	-70.99429	1413.50787	475.66719	-79.23422	1467.65385	108.63790	-98.29066	1422.89279	67.67829	-161.66138	1615.57950	98.82065	-69.57106	1641.72906	143.83138	-117.26981	1085.07444	589.87462	-352.73409	1077.95275	386.52588	-312.66713	920.27566	116.08328	-303.33328	857.81957	84.82361	-239.75783	1051.85607	36.27224	-346.05920	1096.24361	60.99326	-286.71870	1444.01952	367.17330	-89.03375	1352.77061	452.31522	-38.93250	1379.66962	342.42351	-41.15411	1021.68729	403.99658	-376.36270	982.14596	296.22179	-353.43450	1295.59117	889.74062	-34.91613	1343.51683	790.01458	-46.96351	1295.58346	741.86502	-32.06372	1193.04108	847.29218	-49.67377	1241.32574	739.35090	-50.30623	1221.96402	865.51081	-372.39039	1189.36793	736.06160	-360.73324	1117.64493	891.89624	-400.79927	1088.02744	758.09255	-394.73136	1266.68024	1158.31794	-77.46889	1081.87216	1188.29552	-168.24491	1268.58826	1145.34319	-357.29701	1084.64020	1190.59448	-261.87737	1176.67472	1683.99017	-220.08684	1226.94880	1622.87578	-47.07075	1235.95727	1643.83125	-393.46978	1299.57763	1576.61036	-188.42792	1304.77475	1578.71590	-246.32643	1156.86394	1362.34996	25.09431	1049.78072	1265.09630	-17.37646	1058.27422	1287.83936	53.01954	1150.30426	1091.88353	80.86318	1185.49248	1002.17320	79.63253	1155.49283	1000.03627	104.37778	1222.53537	1352.29298	-465.40730	1125.41257	1278.76736	-428.32362	1152.34309	1278.16758	-501.13318	1255.04183	1097.13704	-518.50986	1292.34699	1026.19215	-508.63203	1269.50659	1023.99158	-534.30490	1188.14397	1062.74984	-114.35364	1182.49528	1059.28998	-311.71901	1196.34497	1063.60348	-121.83842	1201.80655	1068.14002	-306.59110	
120	1.19000000	1358.34960	606.55941	-71.49072	1423.33028	473.90693	-80.22820	1476.58427	107.12716	-100.42853	1432.08105	66.49871	-164.27817	1624.26101	96.85212	-70.96640	1650.79863	141.71750	-118.50031	1092.77001	589.13882	-352.12115	1082.95552	385.65485	-312.06659	921.25432	117.51034	-303.20603	858.40685	86.76667	-239.71782	1051.99201	36.41411	-345.93907	1096.51233	60.91356	-286.50953	1453.66592	365.39900	-90.36865	1362.47819	450.53996	-40.23899	1389.14639	340.61633	-42.79142	1027.14172	404.03624	-375.85345	985.83077	296.70852	-353.07623	1305.58818	888.20064	-34.43061	1353.49605	788.51631	-46.72955	1305.25393	740.28209	-32.43942	1203.10760	846.01732	-50.35819	1251.35618	738.29394	-51.09926	1231.26771	864.13444	-371.73141	1198.31268	734.85080	-360.19785	1127.22881	891.17575	-400.34019	1096.80986	757.41712	-393.94744	1277.33178	1156.79061	-76.68371	1092.56815	1186.98103	-167.55392	1279.38406	1143.94147	-356.59319	1095.39801	1189.28784	-261.17387	1187.73952	1682.70632	-218.28784	1237.81404	1621.06748	-45.49509	1246.91764	1642.88908	-391.79094	1310.52450	1575.07037	-186.85806	1315.76073	1577.32641	-244.75972	1167.74867	1360.40866	26.19527	1060.74007	1263.18992	-16.53986	1069.15722	1285.82772	53.98726	1160.78136	1089.62731	81.60180	1195.72601	999.79680	80.22337	1165.72382	997.78349	104.98803	1233.30475	1351.47905	-464.04993	1136.18347	1277.90264	-426.95255	1163.02832	1277.38664	-499.82619	1265.57690	1096.30068	-517.50201	1302.80377	1025.34392	-507.76570	1279.83899	1023.23619	-533.44934	1198.73427	1061.30634	-113.67537	1193.17524	1057.93968	-311.04477	1206.90325	1062.18089	-121.12529	1212.48933	1066.73468	-305.92459	
121	1.20000000	1368.67442	605.30373	-72.21023	1433.22804	471.99916	-81.45108	1483.51408	105.32997	-102.28075	1438.90107	65.25785	-166.53805	1630.82684	93.74084	-72.25638	1658.03653	138.14610	-119.80115	1100.85734	588.38099	-351.49437	1088.28661	384.77745	-311.44086	922.39052	119.11610	-303.14081	859.11305	88.97371	-239.69306	1052.14100	36.58422	-345.79213	1096.80518	60.85225	-286.23939	1462.80554	363.30763	-91.85359	1372.21172	448.95849	-41.63704	1398.07133	338.87246	-44.41585	1032.93164	404.10455	-375.32542	989.80985	297.29365	-352.70887	1315.82717	886.72426	-33.79550	1363.82853	787.10726	-46.34714	1315.27702	738.74738	-32.93393	1213.53045	844.75427	-51.26258	1261.75864	737.28381	-52.11590	1240.83685	862.83199	-371.03471	1207.49579	733.68857	-359.62957	1137.00637	890.49567	-399.77893	1105.88390	756.73727	-393.07503	1288.12244	1155.27643	-75.85424	1103.41499	1185.68928	-166.83591	1290.28182	1142.61423	-355.85671	1106.31399	1188.00877	-260.41034	1198.83119	1681.45212	-216.41566	1248.68788	1619.31761	-43.83391	1257.99018	1641.99612	-390.02069	1321.51772	1573.59105	-185.18883	1326.79747	1575.99467	-243.09214	1178.61656	1358.51239	27.33795	1071.76811	1261.31284	-15.85823	1080.02542	1283.86006	54.95399	1171.32626	1087.45564	82.39347	1206.02899	997.54472	80.88811	1176.03181	995.61627	105.65359	1244.07190	1350.72805	-462.61762	1146.93120	1277.14917	-425.51095	1173.69422	1276.69912	-498.44179	1276.02385	1095.51970	-516.41347	1313.17872	1024.51698	-506.80247	1290.02790	1022.52194	-532.50989	1209.47396	1059.87863	-112.97774	1203.99341	1056.64282	-310.35135	1217.58020	1060.79406	-120.38285	1223.30751	1065.37639	-305.23352	
